<?xml version="1.0" standalone="no"?>
<!DOCTYPE svg PUBLIC "-//W3C//DTD SVG 20010904//EN"
 "http://www.w3.org/TR/2001/REC-SVG-20010904/DTD/svg10.dtd">
<svg version="1.0" xmlns="http://www.w3.org/2000/svg"
 width="373.000000pt" height="373.000000pt" viewBox="0 0 373.000000 373.000000"
 preserveAspectRatio="xMidYMid meet">
<metadata>
Created by potrace 1.14, written by Peter Selinger 2001-2017
</metadata>
<g transform="translate(0.000000,373.000000) scale(0.100000,-0.100000)"
fill="#000000" stroke="none">
<path d="M1749 3725 c-3 -2 -41 -9 -85 -14 -161 -19 -378 -77 -474 -127 -25
-13 -97 -48 -160 -80 -63 -31 -133 -71 -155 -88 -22 -18 -67 -51 -100 -74 -79
-54 -211 -183 -260 -252 -21 -30 -57 -73 -81 -95 -41 -38 -177 -258 -225 -364
-36 -78 -79 -213 -89 -277 -6 -34 -18 -81 -29 -105 -10 -24 -22 -71 -26 -104
-4 -33 -11 -65 -16 -71 -6 -7 -8 -98 -6 -220 4 -198 18 -319 46 -394 5 -14 21
-68 36 -120 31 -114 79 -220 191 -423 59 -107 239 -330 332 -410 124 -109 207
-174 257 -204 235 -140 315 -174 565 -240 136 -36 169 -42 222 -43 26 0 50 -5
53 -10 4 -6 70 -10 164 -10 124 0 161 3 170 14 7 8 40 17 74 20 34 4 107 18
162 32 280 72 402 123 635 269 102 64 288 240 356 336 30 42 61 82 69 89 8 7
33 49 56 93 22 44 52 98 65 119 33 52 74 143 74 164 0 10 9 52 19 93 21 83 66
307 77 386 3 28 8 53 10 56 9 16 12 369 3 375 -6 3 -8 12 -6 19 3 6 -6 52 -19
101 -14 49 -29 122 -35 163 -6 41 -19 100 -30 130 -12 31 -39 108 -61 171 -62
180 -107 264 -251 475 -71 103 -176 196 -365 321 -86 57 -330 174 -422 202
-130 40 -286 72 -348 72 -32 0 -54 5 -62 15 -10 12 -42 15 -170 15 -86 0 -159
-2 -161 -5z"/>
</g>
</svg>
